<?xml version="1.0" standalone="no"?>
<!DOCTYPE svg PUBLIC "-//W3C//DTD SVG 20010904//EN"
 "http://www.w3.org/TR/2001/REC-SVG-20010904/DTD/svg10.dtd">
<svg version="1.0" xmlns="http://www.w3.org/2000/svg"
 width="1009.000000pt" height="1002.000000pt" viewBox="0 0 1009.000000 1002.000000"
 preserveAspectRatio="xMidYMid meet">

<g transform="translate(0.000000,1002.000000) scale(0.100000,-0.100000)"
fill="#000000" stroke="none">
<path d="M2562 6628 l3 -2303 23 -105 c12 -58 36 -154 53 -214 128 -454 407
-890 760 -1187 41 -35 88 -75 105 -89 76 -64 293 -199 419 -260 110 -54 310
-130 340 -130 3 0 5 150 4 333 l-1 332 -116 58 c-446 220 -794 665 -956 1226
l-36 123 2 1815 3 1814 70 -60 c173 -150 298 -347 379 -598 l36 -113 0 -1417
c0 -1373 1 -1420 20 -1480 58 -185 210 -409 398 -584 73 -68 191 -159 207
-159 4 0 5 847 1 1883 -6 1554 -10 1894 -22 1949 -53 255 -235 595 -457 853
-174 203 -352 350 -560 459 -171 91 -424 156 -606 156 l-71 0 2 -2302z"/>
<path d="M4925 7314 c-22 -2 -59 -7 -82 -10 l-43 -5 0 -2555 0 -2554 330 0
330 0 0 2246 0 2247 68 -6 c124 -12 290 -72 383 -137 l29 -21 2 -2116 3 -2115
314 157 314 156 -8 1735 c-5 1161 -4 1734 3 1734 6 0 50 -42 99 -94 211 -223
335 -547 397 -1036 34 -262 39 -450 32 -1132 -4 -401 -3 -668 2 -668 5 0 34
42 65 93 413 695 573 1413 461 2072 -129 752 -617 1395 -1319 1739 -372 183
-710 264 -1130 271 -115 1 -228 1 -250 -1z"/>
</g>
</svg>
